<svg id="OBJECTS" xmlns="http://www.w3.org/2000/svg" width="156.83665" height="122.19998" viewBox="0 0 156.83665 122.19998"><defs><style>.cls-1{fill:#ff9000;}.cls-2{fill:#08083a;}.cls-3{fill:#ff017b;}.cls-4{fill:#17d7e6;}.cls-5{fill:#fff;}</style></defs><title>favicon</title><path d="M139.89,98.54H48.06c-12.79,0-20.94-27.35-14.85-49.85h0C36.21,37.79,41.86,31,48.06,31h91.83c12.79,0,20.94,27.35,14.85,49.85h0C151.79,91.75,146.09,98.54,139.89,98.54Z" transform="translate(0.03749)"/><circle class="cls-1" cx="139.6613" cy="53.17616" r="5.28" transform="translate(56.98921 177.64345) rotate(-77.24)"/><circle class="cls-2" cx="127.68859" cy="60.74004" r="5.28" transform="translate(40.28379 171.85969) rotate(-77.24)"/><circle class="cls-3" cx="135.24274" cy="72.71055" r="5.28" transform="translate(34.4946 188.55389) rotate(-77.24)"/><circle class="cls-4" cx="147.22299" cy="65.15862" r="5.28" transform="translate(51.19422 194.35433) rotate(-77.24)"/><path class="cls-5" d="M103.64,80.78,92.78,99.58a7,7,0,0,1-6.12,3.54H46.28a7.06,7.06,0,0,1-6.12-3.54l-20.19-35a7.11,7.11,0,0,1,0-7.07L40.91,21.24a4.49,4.49,0,0,1,3.89-2.25H88.15a4.5,4.5,0,0,1,3.9,2.25l13,22.45h22l-3.59-6.21L109.29,13.05A26.2,26.2,0,0,0,86.64,0H46.28A26.19,26.19,0,0,0,23.64,13.05l-20.19,35a26.16,26.16,0,0,0,0,26.1l20.19,35a26.19,26.19,0,0,0,22.6,13.05h40.4a26.2,26.2,0,0,0,22.62-13.05l14.11-24.47,2.23-3.86Z" transform="translate(0.03749)"/><path class="cls-3" d="M108.27,74.62H70.87c-3,0-5-4-3.55-7.24h0a4,4,0,0,1,3.55-2.61h37.4c3,0,5,4,3.55,7.24h0A4,4,0,0,1,108.27,74.62Z" transform="translate(0.03749)"/></svg>