<svg id="OBJECTS" xmlns="http://www.w3.org/2000/svg" width="282.4516" height="139.49414" viewBox="0 0 282.4516 139.49414"><defs><style>.cls-1{fill:#ff9000;}.cls-2{fill:#08083a;}.cls-3{fill:#ff017b;}.cls-4{fill:#17d7e6;}.cls-10,.cls-11,.cls-5,.cls-6,.cls-7,.cls-8,.cls-9{isolation:isolate;}.cls-6,.cls-7{font-size:46.81px;fill:#fdfdff;font-family:Arial-BoldItalicMT, Arial;font-weight:700;}.cls-10,.cls-11,.cls-6,.cls-7,.cls-8,.cls-9{font-style:italic;}.cls-6{letter-spacing:-0.03711em;}.cls-10,.cls-8,.cls-9{font-size:16px;}.cls-10,.cls-11,.cls-12,.cls-8,.cls-9{fill:#fff;}.cls-10,.cls-11,.cls-8,.cls-9{font-family:Arial-ItalicMT, Arial;}.cls-8{letter-spacing:0.21em;}.cls-9{letter-spacing:0.2em;}.cls-10{letter-spacing:0.19em;}.cls-11{font-size:18px;letter-spacing:0.20001em;}</style></defs><title>logo-default-380x100</title><path d="M248.64,98.54H64.97a33.77,33.77,0,0,1-29.7-49.85h0A33.77,33.77,0,0,1,64.97,31H248.64a33.77,33.77,0,0,1,29.7,49.85h0A33.77,33.77,0,0,1,248.64,98.54Z" transform="translate(0.03749)"/><circle class="cls-1" cx="213.66043" cy="53.7884" r="5.28" transform="translate(114.0472 250.29211) rotate(-77.24)"/><circle class="cls-2" cx="201.68799" cy="61.34012" r="5.28" transform="translate(97.35387 244.49912) rotate(-77.24)"/><circle class="cls-3" cx="209.24188" cy="73.3128" r="5.28" transform="translate(91.56234 261.19476) rotate(-77.24)"/><circle class="cls-4" cx="221.21237" cy="65.76867" r="5.28" transform="translate(108.24676 266.99175) rotate(-77.24)"/><g class="cls-5"><text class="cls-6" transform="translate(117.15712 118.27002) scale(0.97 1)">A</text><text class="cls-7" transform="translate(144.76356 118.27002) scale(0.97 1)">MING</text></g><g class="cls-5"><text class="cls-8" transform="translate(112.33729 133.6499) scale(0.97 1)">I</text><text class="cls-9" transform="translate(119.30214 133.6499) scale(0.97 1)">nn</text><text class="cls-10" transform="translate(142.73719 133.6499) scale(0.97 1)">o</text><text class="cls-9" transform="translate(154.26063 133.6499) scale(0.97 1)">va</text><text class="cls-9" transform="translate(175.29042 133.6499) scale(0.97 1)">tion</text><text class="cls-11" transform="translate(213.60536 133.6499) scale(0.97 1)">X</text></g><path class="cls-12" d="M103.64,80.78,92.78,99.58a7,7,0,0,1-6.12,3.54H46.28a7.06,7.06,0,0,1-6.12-3.54l-20.19-35a7.11,7.11,0,0,1,0-7.07L40.91,21.24a4.49,4.49,0,0,1,3.89-2.25H88.15a4.5,4.5,0,0,1,3.9,2.25l13,22.45h22l-3.59-6.21L109.29,13.05A26.2,26.2,0,0,0,86.64,0H46.28A26.19,26.19,0,0,0,23.64,13.05l-20.19,35a26.16,26.16,0,0,0,0,26.1l20.19,35a26.19,26.19,0,0,0,22.6,13.05h40.4a26.2,26.2,0,0,0,22.62-13.05l14.11-24.47,2.23-3.86Z" transform="translate(0.03749)"/><path class="cls-3" d="M148.85,70.93h-74a8,8,0,0,1-7-11.73h0a8,8,0,0,1,7-4.22h74a8,8,0,0,1,7,11.73h0A8,8,0,0,1,148.85,70.93Z" transform="translate(0.03749)"/></svg>